<?xml version="1.0" encoding="UTF-8" standalone="no"?>
<!-- Created with Inkscape (http://www.inkscape.org/) -->

<svg
   width="400.00031"
   height="179.99998"
   viewBox="0 0 105.83341 47.624998"
   version="1.1"
   id="svg1294"
   inkscape:version="1.1.2 (0a00cf5339, 2022-02-04)"
   sodipodi:docname="VOROX-Logo_WarmConcrete_400x180.svg"
   xmlns:inkscape="http://www.inkscape.org/namespaces/inkscape"
   xmlns:sodipodi="http://sodipodi.sourceforge.net/DTD/sodipodi-0.dtd"
   xmlns="http://www.w3.org/2000/svg"
   xmlns:svg="http://www.w3.org/2000/svg">
  <sodipodi:namedview
     id="namedview1296"
     pagecolor="#505050"
     bordercolor="#eeeeee"
     borderopacity="1"
     inkscape:pageshadow="0"
     inkscape:pageopacity="0"
     inkscape:pagecheckerboard="true"
     inkscape:document-units="mm"
     showgrid="false"
     units="px"
     fit-margin-top="0"
     fit-margin-left="0"
     fit-margin-right="0"
     fit-margin-bottom="0"
     inkscape:snap-global="false"
     inkscape:zoom="1.3736953"
     inkscape:cx="101.55091"
     inkscape:cy="86.627654"
     inkscape:window-width="1920"
     inkscape:window-height="1018"
     inkscape:window-x="0"
     inkscape:window-y="0"
     inkscape:window-maximized="1"
     inkscape:current-layer="layer1" />
  <defs
     id="defs1291" />
  <g
     inkscape:label="Layer 1"
     inkscape:groupmode="layer"
     id="layer1"
     transform="translate(-53.209695,-95.29395)">
    <g
       id="g1248"
       transform="matrix(1.2751129,0,0,1.2454711,-46.0667,-192.66101)"
       style="fill:#eae6e2;fill-opacity:1">
      <g
         id="g1253"
         transform="matrix(0.26458333,0,0,0.26458333,-23.75155,-9.2717938)"
         style="font-size:40px;line-height:1.25;white-space:pre;fill:#eae6e2;fill-opacity:1">
        <path
           d="m 410.31652,1053.0796 5.472,-25.92 h 2.56 l 5.504,25.92 h -2.4 l -1.28,-6.944 h -6.176 l -1.312,6.944 z m 4.032,-8.704 h 5.504 l -2.752,-13.984 z"
           id="path1236"
           style="font-size:32px;font-family:Oswald;-inkscape-font-specification:'Oswald, @wght=300';font-variation-settings:'wght' 300;fill:#eae6e2;fill-opacity:1" />
        <path
           d="m 481.38469,1053.3996 q -2.624,0 -4.096,-0.928 -1.44,-0.96 -1.984,-2.624 -0.544,-1.696 -0.544,-3.84 v -18.848 h 2.368 v 18.912 q 0,1.504 0.32,2.752 0.352,1.216 1.28,1.92 0.928,0.704 2.656,0.704 1.664,0 2.592,-0.704 0.928,-0.736 1.28,-1.952 0.384,-1.216 0.384,-2.72 v -18.912 h 2.336 v 18.848 q 0,2.144 -0.576,3.84 -0.576,1.664 -2.016,2.624 -1.44,0.928 -4,0.928 z"
           id="path1238"
           style="font-size:32px;font-family:Oswald;-inkscape-font-specification:'Oswald, @wght=300';font-variation-settings:'wght' 300;fill:#eae6e2;fill-opacity:1" />
        <path
           d="m 538.88484,1053.0796 v -25.92 h 5.632 q 2.72,0 4.224,0.96 1.536,0.928 2.176,2.656 0.64,1.728 0.64,4 v 10.304 q 0,2.4 -0.64,4.224 -0.64,1.792 -2.112,2.784 -1.472,0.992 -4.064,0.992 z m 2.432,-1.824 h 3.264 q 2.048,0 3.008,-0.832 0.96,-0.864 1.216,-2.336 0.256,-1.504 0.256,-3.392 v -9.664 q 0,-1.952 -0.352,-3.264 -0.32,-1.344 -1.312,-2.016 -0.96,-0.704 -2.912,-0.704 h -3.168 z"
           id="path1240"
           style="font-size:32px;font-family:Oswald;-inkscape-font-specification:'Oswald, @wght=300';font-variation-settings:'wght' 300;fill:#eae6e2;fill-opacity:1" />
        <path
           d="m 602.46498,1053.0796 v -25.92 h 2.432 v 25.92 z"
           id="path1242"
           style="font-size:32px;font-family:Oswald;-inkscape-font-specification:'Oswald, @wght=300';font-variation-settings:'wght' 300;fill:#eae6e2;fill-opacity:1" />
        <path
           d="m 662.49313,1053.3996 q -2.592,0 -4.064,-0.992 -1.44,-1.024 -2.048,-2.816 -0.576,-1.824 -0.576,-4.16 v -10.752 q 0,-2.368 0.608,-4.096 0.64,-1.76 2.08,-2.72 1.472,-0.96 4,-0.96 2.496,0 3.936,0.96 1.472,0.96 2.08,2.72 0.608,1.728 0.608,4.096 v 10.784 q 0,2.336 -0.608,4.128 -0.576,1.76 -2.016,2.784 -1.44,1.024 -4,1.024 z m 0,-1.952 q 1.696,0 2.592,-0.672 0.896,-0.704 1.216,-1.92 0.352,-1.248 0.352,-2.88 v -11.744 q 0,-1.632 -0.352,-2.848 -0.32,-1.216 -1.216,-1.856 -0.896,-0.672 -2.592,-0.672 -1.728,0 -2.656,0.672 -0.896,0.64 -1.248,1.856 -0.32,1.216 -0.32,2.848 v 11.744 q 0,1.632 0.32,2.88 0.352,1.216 1.248,1.92 0.928,0.672 2.656,0.672 z"
           id="path1244"
           style="font-size:32px;font-family:Oswald;-inkscape-font-specification:'Oswald, @wght=300';font-variation-settings:'wght' 300;fill:#eae6e2;fill-opacity:1" />
      </g>
    </g>
    <g
       id="g1956"
       transform="translate(-1130.35,-304.64294)">
      <g
         id="g1774"
         transform="translate(-5.4791501e-6,-3.7831191)">
        <path
           d="m 1191.6317,437.07882 -8.072,-33.35879 h 2.224 l 6.9188,29.44634 6.4659,-29.44634 h 2.1827 l -7.619,33.35879 z"
           style="font-size:280px;line-height:1.25;font-family:Oswald;-inkscape-font-specification:'Oswald, @wght=200';font-variation-settings:'wght' 200;white-space:pre;fill:#eae6e2;fill-opacity:1;stroke-width:0.147085"
           id="path1250" />
        <path
           d="m 1226.6978,437.07882 v -33.35879 h 8.072 q 2.9652,0 4.5302,1.11196 1.6062,1.07077 2.1827,2.96522 0.6178,1.85327 0.6178,4.15956 0,1.85326 -0.4118,3.54179 -0.3707,1.68854 -1.4415,2.88286 -1.0296,1.15315 -3.0476,1.48262 l 5.3539,17.21478 h -2.2239 l -5.1892,-16.80295 h -6.2187 v 16.80295 z m 2.2239,-18.53266 h 5.7657 q 2.1416,0 3.2535,-0.78249 1.112,-0.82368 1.5238,-2.30629 0.4531,-1.48261 0.4531,-3.50061 0,-3.17115 -1.0708,-4.8185 -1.0296,-1.64735 -4.2008,-1.64735 h -5.7245 z"
           style="font-size:280px;line-height:1.25;font-family:Oswald;-inkscape-font-specification:'Oswald, @wght=200';font-variation-settings:'wght' 200;white-space:pre;fill:#eae6e2;fill-opacity:1;stroke-width:0.147085"
           id="path1252" />
        <path
           id="path1254"
           style="font-size:280px;line-height:1.25;font-family:Oswald;-inkscape-font-specification:'Oswald, @wght=200';font-variation-settings:'wght' 200;white-space:pre;fill:#eae6e2;fill-opacity:1;stroke-width:0.120234"
           d="m 1253.3961,403.72001 c -1.7282,0 -3.0861,0.33675 -4.0736,1.01006 -0.9651,0.67331 -1.6497,1.60451 -2.0537,2.79403 -0.404,1.18952 -0.6059,2.55884 -0.6059,4.10746 v 11.91759 c 0,1.54861 0.1907,2.93998 0.5723,4.17439 0.3815,1.21196 1.0547,2.17724 2.0198,2.89544 0.9875,0.69575 2.368,1.04338 4.1411,1.04338 1.773,0 3.1421,-0.34763 4.1071,-1.04338 0.9876,-0.7182 1.6719,-1.68348 2.0535,-2.89544 0.3815,-1.21197 0.5722,-2.59216 0.5722,-4.14078 v -11.9512 c 0,-1.54862 -0.2018,-2.91794 -0.6058,-4.10746 -0.404,-1.18952 -1.0998,-2.12072 -2.0874,-2.79403 -0.965,-0.67331 -2.3115,-1.01006 -4.0396,-1.01006 z m -0.061,2.14968 c 1.2567,0 2.2153,0.24495 2.8756,0.73485 0.6603,0.4686 1.1181,1.13963 1.3737,2.01293 0.2556,0.8733 0.3835,1.89573 0.3835,3.06723 v 11.94919 c 0,1.17151 -0.1279,2.20452 -0.3835,3.09912 -0.2556,0.8733 -0.724,1.55492 -1.4056,2.04482 -0.6603,0.4899 -1.6083,0.73485 -2.8437,0.73485 -1.2354,0 -2.1938,-0.24495 -2.8754,-0.73485 -0.6603,-0.4899 -1.1184,-1.17152 -1.374,-2.04482 -0.2556,-0.8946 -0.3832,-1.92761 -0.3832,-3.09912 V 411.6847 c 0,-1.1715 0.1276,-2.19393 0.3832,-3.06723 0.2556,-0.8733 0.7137,-1.54433 1.374,-2.01293 0.6816,-0.4899 1.64,-0.73485 2.8754,-0.73485 z" />
        <path
           d="m 1262.4733,437.07882 7.3307,-17.29715 -7.2895,-16.06164 h 2.0592 l 6.5482,14.24956 6.3835,-14.24956 h 2.2239 l -7.619,16.39111 7.7837,16.96768 h -2.1827 l -6.8777,-14.99086 -6.1363,14.99086 z"
           style="font-size:280px;line-height:1.25;font-family:Oswald;-inkscape-font-specification:'Oswald, @wght=200';font-variation-settings:'wght' 200;white-space:pre;fill:#eae6e2;fill-opacity:1;stroke-width:0.147085"
           id="path1256" />
      </g>
      <g
         id="g1268"
         transform="translate(-9.0363599,144.77479)"
         style="fill:#ff6611;fill-opacity:1">
        <g
           id="g1264"
           transform="matrix(0.14708464,0,0,0.14708464,1163.4152,139.0838)"
           style="font-size:40px;line-height:1.25;white-space:pre;fill:#ff6611;fill-opacity:1">
          <path
             id="path1260"
             style="color:#000000;fill:#ff6611;fill-opacity:1;stroke-linecap:round;-inkscape-stroke:none"
             d="m 860.78749,797.69459 -4.0801,8.77734 c 31.1379,21.18392 51.5899,57.031 51.5899,97.74414 0,38.6438 -18.4276,72.9022 -46.9278,94.40039 l 4.0723,8.87694 c 31.7888,-23.19473 52.4941,-60.82236 52.4941,-103.27733 0,-44.49459 -22.7377,-83.6917 -57.1484,-106.52148 z m -14.0508,30.23047 -4.1269,8.87695 c 20.2469,15.49602 33.2988,39.90347 33.2988,67.41406 0,25.35043 -11.0868,48.06201 -28.668,63.59961 l 4.1602,9.06641 c 20.8521,-17.34167 34.1465,-43.46872 34.1465,-72.66602 0,-31.3163 -15.3001,-59.09186 -38.8106,-76.29101 z m -15.0429,32.35937 -4.3399,9.33984 c 8.239,9.16566 13.2871,21.26068 13.2871,34.5918 0,10.91557 -3.3723,21.01537 -9.1113,29.35352 l 4.5332,9.88085 c 8.8681,-10.64986 14.2168,-24.32665 14.2168,-39.23437 0,-17.21068 -7.1396,-32.76921 -18.5859,-43.93164 z" />
          <path
             id="path1262"
             style="color:#000000;fill:#ff6611;fill-opacity:1;stroke:none;-inkscape-stroke:none"
             d="m 389.24502,994.52557 v 21.54883 h 12.2832 v -21.54883 z m 6.14106,3.2e-4 v 21.54861 m -64.09139,-94.08953 c 0.22496,16.06578 -0.66102,21.56064 2.96383,34.38081 9.8e-4,0.003 0.003,0.006 0.004,0.01 9.2e-4,0.003 0.003,0.007 0.004,0.01 3.7925,13.14874 10.3568,23.40404 19.85156,31.13868 9.54478,7.33482 23.22318,11.2246 41.26758,11.2246 18.05347,0 31.61391,-3.89402 40.9082,-11.20898 l 0.01,-0.006 c 9.74794,-7.74845 16.42227,-18.01298 20.21289,-31.16797 3.65124,-12.67137 3.02773,-18.16795 3.22693,-34.38114 h -11.59655 v 1.88348 c 0,14.32146 -0.0296,17.66372 -2.94093,28.79652 -0.001,0.008 -0.003,0.0156 -0.004,0.0234 -2.97779,11.11562 -8.58317,20.06874 -16.64453,26.41015 -8.0353,6.50812 -19.1742,9.51172 -33.17187,9.51172 -14.00379,0 -25.24748,-3.01052 -33.49414,-9.48633 -0.0131,-0.011 -0.0261,-0.022 -0.0391,-0.0332 -7.83732,-6.35287 -13.30858,-15.29858 -16.2832,-26.40234 -6.7e-4,-0.008 -0.001,-0.0156 -0.002,-0.0234 -2.91156,-11.13344 -3.11956,-15.0509 -3.11956,-29.37181 v -1.30819 z"
             sodipodi:nodetypes="ccccccccccccsccsccscccsccccscc" />
        </g>
        <path
           id="path1266"
           style="font-size:280px;line-height:1.25;font-family:Oswald;-inkscape-font-specification:'Oswald, @wght=200';font-variation-settings:'wght' 200;white-space:pre;fill:#ff6611;fill-opacity:1;stroke-width:0.120234"
           d="m 1221.5901,255.1621 c -1.7281,0 -3.086,0.33675 -4.0735,1.01006 -0.9651,0.67331 -1.6498,1.60451 -2.0537,2.79403 -0.404,1.18952 -0.6059,2.55884 -0.6059,4.10746 v 11.91759 c 0,1.54861 0.1907,2.93998 0.5722,4.17439 0.3816,1.21196 1.0548,2.17724 2.0199,2.89544 0.9875,0.69575 2.368,1.04338 4.141,1.04338 1.7731,0 3.1421,-0.34763 4.1072,-1.04338 0.9875,-0.7182 1.6719,-1.68348 2.0534,-2.89544 0.3816,-1.21197 0.5723,-2.59216 0.5723,-4.14078 v -11.9512 c 0,-1.54862 -0.2019,-2.91794 -0.6059,-4.10746 -0.404,-1.18952 -1.0998,-2.12072 -2.0873,-2.79403 -0.9651,-0.67331 -2.3115,-1.01006 -4.0397,-1.01006 z m -0.061,2.14968 c 1.2567,0 2.2153,0.24495 2.8756,0.73485 0.6603,0.4686 1.1182,1.13963 1.3738,2.01293 0.2556,0.8733 0.3835,1.89573 0.3835,3.06723 v 11.94919 c 0,1.17151 -0.1279,2.20452 -0.3835,3.09912 -0.2556,0.8733 -0.724,1.55492 -1.4056,2.04482 -0.6603,0.4899 -1.6084,0.73485 -2.8438,0.73485 -1.2354,0 -2.1937,-0.24495 -2.8753,-0.73485 -0.6603,-0.4899 -1.1184,-1.17152 -1.374,-2.04482 -0.2556,-0.8946 -0.3833,-1.92761 -0.3833,-3.09912 v -11.94919 c 0,-1.1715 0.1277,-2.19393 0.3833,-3.06723 0.2556,-0.8733 0.7137,-1.54433 1.374,-2.01293 0.6816,-0.4899 1.6399,-0.73485 2.8753,-0.73485 z" />
      </g>
    </g>
  </g>
</svg>
