<svg xmlns="http://www.w3.org/2000/svg" version="1.1" xmlns:xlink="http://www.w3.org/1999/xlink" width="1000" height="1000"><style>
    #light-icon {
      display: inline;
    }
    #dark-icon {
      display: none;
    }

    @media (prefers-color-scheme: dark) {
      #light-icon {
        display: none;
      }
      #dark-icon {
        display: inline;
      }
    }
  </style><g id="light-icon"><svg xmlns="http://www.w3.org/2000/svg" version="1.1" xmlns:xlink="http://www.w3.org/1999/xlink" width="1000" height="1000"><g clip-path="url(#SvgjsClipPath1466)"><rect width="1000" height="1000" fill="#282828"></rect><g transform="matrix(2.6666666666666665,0,0,2.6666666666666665,100,100)"><svg xmlns="http://www.w3.org/2000/svg" version="1.1" xmlns:xlink="http://www.w3.org/1999/xlink" width="300" height="300"><svg width="300" height="300" viewBox="0 0 79.374998 79.375002" version="1.1" id="svg1407" inkscape:version="1.1.2 (0a00cf5339, 2022-02-04)" sodipodi:docname="VOROX_LOGO_mini-mono.svg" xmlns:inkscape="http://www.inkscape.org/namespaces/inkscape" xmlns:sodipodi="http://sodipodi.sourceforge.net/DTD/sodipodi-0.dtd" xmlns="http://www.w3.org/2000/svg" xmlns:svg="http://www.w3.org/2000/svg">
  <sodipodi:namedview id="namedview1409" pagecolor="#505050" bordercolor="#eeeeee" borderopacity="1" inkscape:pageshadow="0" inkscape:pageopacity="0" inkscape:pagecheckerboard="0" inkscape:document-units="mm" showgrid="false" units="px" inkscape:zoom="0.93859296" inkscape:cx="126.25281" inkscape:cy="259.96359" inkscape:window-width="1920" inkscape:window-height="1018" inkscape:window-x="0" inkscape:window-y="0" inkscape:window-maximized="1" inkscape:current-layer="layer1"></sodipodi:namedview>
  <defs id="defs1404"><clipPath id="SvgjsClipPath1466"><rect width="1000" height="1000" x="0" y="0" rx="200" ry="200"></rect></clipPath></defs>
  <g inkscape:label="Layer 1" inkscape:groupmode="layer" id="layer1">
    <rect style="font-variation-settings:'wght' 600;fill:#282828;fill-opacity:1;stroke:none;stroke-width:12;stroke-linecap:round" id="rect845" width="79.375" height="79.375" x="0" y="3.9025535e-15"></rect>
    <path d="M 15.104595,79.37501 0,0 H 14.025695 L 23.441546,54.87655 32.268907,0 H 46.883092 L 31.778498,79.37501 Z" style="font-size:98.0378px;line-height:1.25;font-family:Oswald;-inkscape-font-specification:'Oswald, @wght=600';font-variation-settings:'wght' 600;fill:#ebdbb2;stroke-width:0.264583;fill-opacity:1" id="path11155"></path>
    <path id="path12913" style="color:#000000;fill:#d65d0e;stroke-width:1;stroke-linecap:round;-inkscape-stroke:none;fill-opacity:1" d="M 49.731752,0.29868976 47.480212,12.131559 c 11.587106,3.798477 19.894391,14.652465 19.894391,27.555941 0,13.042664 -8.484913,23.996668 -20.268012,27.681514 l 2.190046,11.831318 C 66.59954,74.391381 79.374904,58.48152 79.374904,39.6875 79.374904,21.051431 66.813122,5.251854 49.731752,0.29868976 Z M 46.054459,19.622574 43.739871,31.786173 c 2.518442,1.69861 4.148585,4.578305 4.148585,7.901327 0,3.436823 -1.745105,6.395405 -4.412652,8.065658 l 2.248442,12.147577 C 53.957291,56.870419 59.888239,48.923596 59.888239,39.6875 c 0,-9.108475 -5.777924,-16.943152 -13.83378,-20.064926 z"></path>
  </g>
</svg></svg></g></g></svg></g><g id="dark-icon"><svg xmlns="http://www.w3.org/2000/svg" version="1.1" xmlns:xlink="http://www.w3.org/1999/xlink" width="1000" height="1000"><g clip-path="url(#SvgjsClipPath1467)"><rect width="1000" height="1000" fill="#282828"></rect><g transform="matrix(2.6666666666666665,0,0,2.6666666666666665,100,100)"><svg xmlns="http://www.w3.org/2000/svg" version="1.1" xmlns:xlink="http://www.w3.org/1999/xlink" width="300" height="300"><svg width="300" height="300" viewBox="0 0 79.374998 79.375002" version="1.1" id="svg1407" inkscape:version="1.1.2 (0a00cf5339, 2022-02-04)" sodipodi:docname="VOROX_LOGO_mini-mono.svg" xmlns:inkscape="http://www.inkscape.org/namespaces/inkscape" xmlns:sodipodi="http://sodipodi.sourceforge.net/DTD/sodipodi-0.dtd" xmlns="http://www.w3.org/2000/svg" xmlns:svg="http://www.w3.org/2000/svg">
  <sodipodi:namedview id="namedview1409" pagecolor="#505050" bordercolor="#eeeeee" borderopacity="1" inkscape:pageshadow="0" inkscape:pageopacity="0" inkscape:pagecheckerboard="0" inkscape:document-units="mm" showgrid="false" units="px" inkscape:zoom="0.93859296" inkscape:cx="126.25281" inkscape:cy="259.96359" inkscape:window-width="1920" inkscape:window-height="1018" inkscape:window-x="0" inkscape:window-y="0" inkscape:window-maximized="1" inkscape:current-layer="layer1"></sodipodi:namedview>
  <defs id="defs1404"><clipPath id="SvgjsClipPath1467"><rect width="1000" height="1000" x="0" y="0" rx="200" ry="200"></rect></clipPath></defs>
  <g inkscape:label="Layer 1" inkscape:groupmode="layer" id="layer1">
    <rect style="font-variation-settings:'wght' 600;fill:#282828;fill-opacity:1;stroke:none;stroke-width:12;stroke-linecap:round" id="rect845" width="79.375" height="79.375" x="0" y="3.9025535e-15"></rect>
    <path d="M 15.104595,79.37501 0,0 H 14.025695 L 23.441546,54.87655 32.268907,0 H 46.883092 L 31.778498,79.37501 Z" style="font-size:98.0378px;line-height:1.25;font-family:Oswald;-inkscape-font-specification:'Oswald, @wght=600';font-variation-settings:'wght' 600;fill:#ebdbb2;stroke-width:0.264583;fill-opacity:1" id="path11155"></path>
    <path id="path12913" style="color:#000000;fill:#d65d0e;stroke-width:1;stroke-linecap:round;-inkscape-stroke:none;fill-opacity:1" d="M 49.731752,0.29868976 47.480212,12.131559 c 11.587106,3.798477 19.894391,14.652465 19.894391,27.555941 0,13.042664 -8.484913,23.996668 -20.268012,27.681514 l 2.190046,11.831318 C 66.59954,74.391381 79.374904,58.48152 79.374904,39.6875 79.374904,21.051431 66.813122,5.251854 49.731752,0.29868976 Z M 46.054459,19.622574 43.739871,31.786173 c 2.518442,1.69861 4.148585,4.578305 4.148585,7.901327 0,3.436823 -1.745105,6.395405 -4.412652,8.065658 l 2.248442,12.147577 C 53.957291,56.870419 59.888239,48.923596 59.888239,39.6875 c 0,-9.108475 -5.777924,-16.943152 -13.83378,-20.064926 z"></path>
  </g>
</svg></svg></g></g></svg></g></svg>